<svg width="130" height="58" viewBox="0 0 130 58" fill="none" xmlns="http://www.w3.org/2000/svg">
<path d="M117.024 21.512C118.608 21.512 119.888 22.016 120.864 23.024C121.84 24.016 122.328 25.408 122.328 27.2V35H118.968V27.656C118.968 26.6 118.704 25.792 118.176 25.232C117.648 24.656 116.928 24.368 116.016 24.368C115.088 24.368 114.352 24.656 113.808 25.232C113.28 25.792 113.016 26.6 113.016 27.656V35H109.656V21.704H113.016V23.36C113.464 22.784 114.032 22.336 114.72 22.016C115.424 21.68 116.192 21.512 117.024 21.512Z" fill="#7CE495"/>
<path d="M88 25.5C88 22.7 85.5841 22.0278 84.3762 22.0418H77.9635C74.6421 22.0418 71.9496 24.7343 71.9496 28.0557C71.9496 31.3771 74.6421 34.0697 77.9635 34.0697H84.3762C85.5841 34.0465 88 33.4 88 31V28.5" stroke="white" stroke-width="2" stroke-linecap="round"/>
<path d="M106.019 34.0697H99.6064C96.285 34.0697 93.5925 31.3772 93.5925 28.0558C93.5925 24.7344 96.285 22.0418 99.6064 22.0418H106.019" stroke="white" stroke-width="2" stroke-linecap="round"/>
<path d="M82.5 28.5H99.5" stroke="white" stroke-width="2" stroke-linecap="round"/>
<path d="M129 20H123" stroke="white" stroke-width="1.5" stroke-linecap="round"/>
<path d="M126 17L126 23" stroke="white" stroke-width="1.5" stroke-linecap="round"/>
<path d="M26.016 32.336H31.536V35H22.656V18.248H26.016V32.336ZM35.7356 20.12C35.1436 20.12 34.6476 19.936 34.2476 19.568C33.8636 19.184 33.6716 18.712 33.6716 18.152C33.6716 17.592 33.8636 17.128 34.2476 16.76C34.6476 16.376 35.1436 16.184 35.7356 16.184C36.3276 16.184 36.8156 16.376 37.1996 16.76C37.5996 17.128 37.7996 17.592 37.7996 18.152C37.7996 18.712 37.5996 19.184 37.1996 19.568C36.8156 19.936 36.3276 20.12 35.7356 20.12ZM37.3916 21.704V35H34.0316V21.704H37.3916ZM48.4393 21.512C50.0233 21.512 51.3033 22.016 52.2793 23.024C53.2553 24.016 53.7433 25.408 53.7433 27.2V35H50.3833V27.656C50.3833 26.6 50.1193 25.792 49.5913 25.232C49.0633 24.656 48.3433 24.368 47.4313 24.368C46.5033 24.368 45.7673 24.656 45.2233 25.232C44.6953 25.792 44.4313 26.6 44.4313 27.656V35H41.0713V21.704H44.4313V23.36C44.8793 22.784 45.4473 22.336 46.1353 22.016C46.8393 21.68 47.6073 21.512 48.4393 21.512ZM65.1705 35L60.6585 29.336V35H57.2985V17.24H60.6585V27.344L65.1225 21.704H69.4905L63.6345 28.376L69.5385 35H65.1705Z" fill="#7CE495"/>
</svg>
